<?xml version="1.0" encoding="UTF-8"?>
<svg version="1.1" xmlns="http://www.w3.org/2000/svg" width="512" height="512">
<path d="M0 0 C1.47949219 2.16357422 1.47949219 2.16357422 3.046875 5.0546875 C3.93149414 6.66827148 3.93149414 6.66827148 4.83398438 8.31445312 C5.47273045 9.50126215 6.11140018 10.68811227 6.75 11.875 C7.41892969 13.10145314 8.08886775 14.32735677 8.75976562 15.55273438 C10.1543215 18.10172227 11.5444841 20.65303304 12.93164062 23.20605469 C16.08060853 28.99313832 19.293569 34.74462816 22.5 40.5 C23.73327827 42.72124016 24.96634978 44.94259514 26.19921875 47.1640625 C28.50855998 51.32172152 30.8236386 55.47607892 33.14590454 59.62652588 C34.53530872 62.11027914 35.92252347 64.59525197 37.30957031 67.08032227 C38.28888196 68.83273704 39.27135561 70.58338359 40.25390625 72.33398438 C40.846875 73.39681641 41.43984375 74.45964844 42.05078125 75.5546875 C42.57325439 76.48780762 43.09572754 77.42092773 43.6340332 78.38232422 C44.93529045 80.87599359 46.00685235 83.37043277 47 86 C40.29985861 90.83392494 33.4563364 95.2293803 26.3125 99.375 C24.36178555 100.51789876 22.41126499 101.66112852 20.4609375 102.8046875 C19.05279785 103.62791504 19.05279785 103.62791504 17.61621094 104.46777344 C4.60667909 112.08701774 -8.19711992 120.04005303 -21 128 C-16.8685658 134.66011721 -12.5445337 141.11973768 -7.96191406 147.47338867 C-4.87623501 151.75720594 -1.85612655 156.0803412 1.125 160.4375 C5.71776381 167.14763118 10.35177052 173.82817378 15 180.5 C19.94903736 187.60537894 24.88128054 194.72131749 29.77734375 201.86328125 C33.82504121 207.76066835 37.91193716 213.63054665 42 219.5 C46.94893338 226.60545183 51.88128005 233.72131678 56.77734375 240.86328125 C60.82504121 246.76066835 64.91193716 252.63054665 69 258.5 C73.94893338 265.60545183 78.88128005 272.72131678 83.77734375 279.86328125 C87.82504229 285.76066993 91.91214232 291.63040218 96 297.5 C109.0721412 316.28112356 109.0721412 316.28112356 113.84667969 323.33203125 C114.93924043 324.91212757 116.08166621 326.45740289 117.2265625 328 C121.36455577 333.80308219 122.95743379 338.13932368 122.4921875 345.33203125 C121.38466422 351.33551064 117.80838418 354.58351651 113 358 C108.80481683 360.09759158 103.56871977 359.40276872 99 359 C90.17202232 355.26508637 84.58781872 344.53253848 79.51953125 336.78515625 C76.17114924 331.70802855 72.6676689 326.7371919 69.1875 321.75 C64.6054744 315.17987507 60.0277618 308.60766161 55.5 302 C51.0299137 295.47909384 46.51849197 288.98744378 42 282.5 C37.05106662 275.39454817 32.11871995 268.27868322 27.22265625 261.13671875 C23.17495879 255.23933165 19.08806284 249.36945335 15 243.5 C10.05467048 236.39972242 5.12498198 229.28966428 0.23364258 222.15209961 C-4.58729206 215.12633207 -9.46469747 208.13978651 -14.34375 201.15429688 C-14.98957031 200.22810547 -15.63539063 199.30191406 -16.30078125 198.34765625 C-16.86966064 197.53304932 -17.43854004 196.71844238 -18.0246582 195.87915039 C-20.72313092 191.94600383 -23.36149443 187.97353975 -26 184 C-30.1536171 207.26405914 -34.11182752 230.55737376 -37.953125 253.875 C-38.27878461 255.84840937 -38.60444456 257.82181869 -38.93022585 259.79520798 C-40.83017263 271.30396098 -42.72916532 282.81286201 -44.61328125 294.32421875 C-45.71627899 301.0629303 -46.82783448 307.80018877 -47.94429779 314.53668213 C-48.36346241 317.07505069 -48.77969504 319.61390534 -49.19284821 322.15325928 C-49.76593272 325.67376836 -50.3490874 329.19247225 -50.93457031 332.7109375 C-51.09980194 333.74142212 -51.26503357 334.77190674 -51.43527222 335.83361816 C-54.02826023 351.21809042 -54.02826023 351.21809042 -59.5625 355.4375 C-60.16191406 355.91058594 -60.76132813 356.38367188 -61.37890625 356.87109375 C-66.05519289 360.12759216 -71.50502657 359.5178509 -77 359 C-82.01791684 356.58064724 -85.49958655 353.0008269 -88 348 C-89.20467489 335.24805592 -86.41526104 322.60828688 -84.28125 310.1015625 C-83.899118 307.81245106 -83.51799031 305.52317175 -83.13781738 303.23373413 C-82.14167894 297.2513845 -81.13204357 291.27139163 -80.1194458 285.29180908 C-79.08568858 279.17248375 -78.06489808 273.05099712 -77.04296875 266.9296875 C-75.04123047 254.95099165 -73.02520682 242.97474879 -71 231 C-71.33307663 231.64076981 -71.66615326 232.28153961 -72.00932312 232.94172668 C-73.55076209 235.90569651 -75.09373323 238.86886625 -76.63671875 241.83203125 C-77.16036011 242.83947388 -77.68400146 243.8469165 -78.22351074 244.8848877 C-81.68295176 251.52514808 -85.21209066 258.12265443 -88.8125 264.6875 C-89.63512329 266.18978149 -89.63512329 266.18978149 -90.47436523 267.72241211 C-91.13480835 268.92522827 -91.13480835 268.92522827 -91.80859375 270.15234375 C-95.37155354 276.66303586 -98.87510665 283.20525543 -102.375 289.75 C-103.01186352 290.94052069 -103.64874506 292.13103175 -104.28564453 293.3215332 C-104.60136414 293.91168716 -104.91708374 294.50184113 -105.24237061 295.10987854 C-105.71601044 295.99521523 -105.71601044 295.99521523 -106.19921875 296.8984375 C-106.51513977 297.48902451 -106.83106079 298.07961151 -107.15655518 298.68809509 C-111.63292597 307.05455664 -116.12528875 315.41231416 -120.640625 323.7578125 C-122.892079 327.92365312 -125.10675373 332.1063009 -127.296875 336.3046875 C-127.82643799 337.30709473 -128.35600098 338.30950195 -128.90161133 339.34228516 C-129.88991568 341.21332392 -130.86724901 343.09022069 -131.83081055 344.97412109 C-135.05293806 351.02760375 -138.74894595 355.87447298 -145 359 C-150.55531248 359.5072965 -155.41830236 359.76260422 -160.5 357.3125 C-164.13859873 353.94679617 -167.69284721 350.65331123 -168.28222656 345.56201172 C-168.57749846 337.37021174 -166.80640222 332.15398545 -162.75 325.125 C-162.20641846 324.1352417 -161.66283691 323.1454834 -161.1027832 322.12573242 C-159.97245189 320.07228905 -158.83151688 318.02464771 -157.68017578 315.98291016 C-155.62295676 312.33061403 -153.62398749 308.64854599 -151.62646484 304.96337891 C-150.15570309 302.25392333 -148.67423849 299.55052221 -147.19140625 296.84765625 C-143.62844716 290.33696542 -140.124784 283.79480202 -136.625 277.25 C-135.34771148 274.86194962 -134.07036435 272.4739306 -132.79296875 270.0859375 C-132.47663483 269.49452469 -132.1603009 268.90311188 -131.8343811 268.29377747 C-126.82120099 258.92419339 -121.77517879 249.57224995 -116.73388672 240.21777344 C-113.82129735 234.81254563 -110.9107577 229.40621432 -108 224 C-106.83334304 221.83332811 -105.66667637 219.66666144 -104.5 217.5 C-103.9225 216.4275 -103.345 215.355 -102.75 214.25 C-92.83333333 195.83333333 -82.91666667 177.41666667 -73 159 C-77.75154806 161.8098902 -82.50128345 164.62282732 -87.25 167.4375 C-87.96352631 167.86029236 -88.67705261 168.28308472 -89.41220093 168.71868896 C-97.38327213 173.44409662 -105.34139447 178.18876059 -113.25390625 183.01171875 C-114.22095993 183.6010041 -114.22095993 183.6010041 -115.20755005 184.20219421 C-118.27523301 186.0731001 -121.33993715 187.94871496 -124.40136719 189.82983398 C-125.49223633 190.49700439 -126.58310547 191.1641748 -127.70703125 191.8515625 C-128.6606958 192.43760254 -129.61436035 193.02364258 -130.59692383 193.62744141 C-135.60854808 196.48991744 -140.36530377 196.58408436 -146 196 C-154.68787079 193.48866235 -158.52458343 183.95576371 -162.59375 176.65625 C-163.89973728 174.27285238 -165.20165764 171.8875399 -166.5 169.5 C-167.90574899 166.92869899 -169.3142301 164.35889784 -170.72265625 161.7890625 C-171.07662979 161.14228546 -171.43060333 160.49550842 -171.79530334 159.82913208 C-174.21095686 155.42060481 -176.65495795 151.02890925 -179.12109375 146.6484375 C-179.76433594 145.50568359 -180.40757812 144.36292969 -181.0703125 143.18554688 C-182.29367638 141.01650736 -183.51887016 138.84849869 -184.74609375 136.68164062 C-185.29265625 135.71162109 -185.83921875 134.74160156 -186.40234375 133.7421875 C-186.88179443 132.8951123 -187.36124512 132.04803711 -187.85522461 131.17529297 C-190.32420819 126.48375027 -190.59806129 122.19186536 -190 117 C-185.74984073 106.5516918 -174.61223542 101.83311109 -165.32421875 96.40087891 C-161.73628819 94.3020071 -158.15775172 92.18721085 -154.578125 90.07421875 C-153.85161743 89.64587738 -153.12510986 89.21753601 -152.37658691 88.7762146 C-145.54710153 84.74472191 -138.76919513 80.63167483 -132 76.5 C-121.36763227 70.01524616 -110.67630936 63.63521276 -99.95898438 57.29199219 C-90.60316048 51.75294976 -81.28306733 46.16009129 -72 40.5 C-60.59778721 33.54898387 -49.13316754 26.70837686 -37.6340332 19.91894531 C-31.37602561 16.21996132 -25.14059176 12.49372264 -18.96875 8.65234375 C-17.90052002 7.99000732 -16.83229004 7.3276709 -15.73168945 6.64526367 C-13.75325187 5.41352007 -11.78009148 4.17324489 -9.81323242 2.9230957 C-8.95060791 2.38644287 -8.0879834 1.84979004 -7.19921875 1.296875 C-6.45502686 0.82604492 -5.71083496 0.35521484 -4.9440918 -0.12988281 C-3 -1 -3 -1 0 0 Z " fill="#A8A0CF" transform="translate(295,122)"/>
<path d="M0 0 C1.54300781 -0.02513672 1.54300781 -0.02513672 3.1171875 -0.05078125 C8.82700059 0.63884553 12.02604309 3.82083972 15.53564453 8.10351562 C18.81594794 12.66268387 21.39849791 17.62753952 24.0625 22.5625 C24.71860834 23.76301067 25.37560956 24.96303374 26.03344727 26.16259766 C27.39551081 28.64788972 28.75375532 31.13521113 30.109375 33.62402344 C33.22315775 39.33250057 36.39690463 45.00765424 39.5625 50.6875 C44.67530632 59.88606527 49.77505225 69.09182678 54.86282349 78.30426025 C55.57323986 79.59049416 56.2839085 80.87658876 56.99484253 82.16253662 C57.9830645 83.9503512 58.97020812 85.73875675 59.95703125 87.52734375 C60.80358276 89.06056274 60.80358276 89.06056274 61.66723633 90.62475586 C65.0483416 96.858651 65.89925173 101.15067145 65.125 108.3125 C61.27066118 118.82433315 48.75313243 123.8474576 39.5809021 129.13201904 C36.36926785 130.98346637 33.16705191 132.85106063 29.96484375 134.71875 C29.30843399 135.10139008 28.65202423 135.48403015 27.97572327 135.87826538 C21.37284576 139.73602006 14.83926566 143.70246158 8.3125 147.6875 C-1.46267766 153.64906847 -11.26606199 159.56044438 -21.10702515 165.41290283 C-22.52155389 166.2542353 -23.93564614 167.09630214 -25.34927368 167.93914795 C-27.32267112 169.11532169 -29.2977715 170.28857931 -31.2734375 171.4609375 C-32.40442871 172.13302246 -33.53541992 172.80510742 -34.70068359 173.49755859 C-45.05126048 179.41558571 -45.05126048 179.41558571 -51.875 178.3125 C-60.31980623 175.93144561 -63.46037831 169.50247907 -67.61328125 162.29614258 C-69.1939935 159.46777856 -70.75815276 156.63131426 -72.30691528 153.78533936 C-73.34214442 151.8830261 -74.38222079 149.98343433 -75.42358398 148.08447266 C-76.50776476 146.10736397 -77.59168654 144.13011941 -78.67414856 142.15206909 C-82.23373613 135.64813997 -85.83246245 129.16635339 -89.4375 122.6875 C-90.04150635 121.60033691 -90.6455127 120.51317383 -91.26782227 119.39306641 C-94.18678665 114.13993879 -97.11010982 108.88929604 -100.04216003 103.64346313 C-101.44225727 101.13782022 -102.84047274 98.63112979 -104.23849487 96.12432861 C-104.90740399 94.92616496 -105.57724969 93.72852364 -106.24807739 92.53143311 C-107.17548671 90.87640281 -108.09954153 89.21949413 -109.0234375 87.5625 C-109.55114746 86.61890625 -110.07885742 85.6753125 -110.62255859 84.703125 C-113.1377518 79.90219481 -113.48752035 75.62988682 -112.875 70.3125 C-108.62484073 59.8641918 -97.48723542 55.14561109 -88.19921875 49.71337891 C-84.61128819 47.6145071 -81.03275172 45.49971085 -77.453125 43.38671875 C-76.72661743 42.95837738 -76.00010986 42.53003601 -75.25158691 42.0887146 C-68.42210344 38.05722303 -61.64413756 33.94426668 -54.875 29.8125 C-43.00321643 22.57270344 -31.06101146 15.45628164 -19.09179688 8.37890625 C-18.43156021 7.98819443 -17.77132355 7.5974826 -17.09107971 7.19493103 C-15.85419211 6.46315196 -14.61686308 5.73211829 -13.37901306 5.00196838 C-4.95466647 0.01853367 -4.95466647 0.01853367 0 0 Z " fill="#A8A0CF" transform="translate(415.875,30.6875)"/>
<path d="M0 0 C2.20550547 1.69567855 3.20297111 3.20617873 4.54125977 5.64428711 C5.27928833 6.96916138 5.27928833 6.96916138 6.03222656 8.32080078 C6.55598877 9.28735596 7.07975098 10.25391113 7.61938477 11.24975586 C8.17215088 12.24918213 8.72491699 13.2486084 9.29443359 14.27832031 C10.82739823 17.05375967 12.35043159 19.83442058 13.87115479 22.61657715 C15.63936064 25.84162029 17.42523852 29.05686359 19.20922852 32.27319336 C22.02218591 37.34950147 24.83216807 42.42741924 27.63110352 47.51147461 C28.20820068 48.55907959 28.78529785 49.60668457 29.37988281 50.68603516 C30.58827232 52.9180203 31.75379423 55.15792718 32.86938477 57.43725586 C29.15446771 60.55493763 25.26104464 63.12114493 21.08422852 65.56225586 C20.43480789 65.94637131 19.78538727 66.33048676 19.11628723 66.72624207 C17.01565224 67.96754698 14.91174394 69.20312879 12.80688477 70.43725586 C9.90366988 72.14020501 7.00113808 73.8443011 4.09985352 75.55053711 C3.02932236 76.17959709 3.02932236 76.17959709 1.93716431 76.82136536 C-2.18479063 79.2542087 -6.24717181 81.75595238 -10.26733398 84.35522461 C-25.44804791 94.1241462 -25.44804791 94.1241462 -33.78686523 93.09350586 C-41.728079 90.869966 -45.7964242 84.39781137 -49.80200195 77.60131836 C-51.52709893 74.47947668 -53.21230258 71.33979149 -54.88061523 68.18725586 C-55.45682617 67.11217773 -56.03303711 66.03709961 -56.62670898 64.92944336 C-58.13815953 62.10384117 -59.64389264 59.27594284 -61.13061523 56.43725586 C-61.5120166 55.71932861 -61.89341797 55.00140137 -62.28637695 54.26171875 C-63.41433806 51.82410933 -63.46774485 49.80219179 -63.50561523 47.12475586 C-63.53397461 46.22112305 -63.56233398 45.31749023 -63.59155273 44.38647461 C-62.75770519 39.0512636 -60.37050739 35.43206648 -56.24658203 32.12329102 C-55.13968018 31.45604004 -54.03277832 30.78878906 -52.89233398 30.10131836 C-52.28306564 29.72818512 -51.6737973 29.35505188 -51.04606628 28.97061157 C-49.08411106 27.77552631 -47.10866593 26.6054723 -45.13061523 25.43725586 C-43.80930085 24.64351386 -42.48850083 23.84891498 -41.16821289 23.0534668 C-37.10675538 20.61653035 -33.02653051 18.21216206 -28.94311523 15.81225586 C-26.87321316 14.59446631 -24.80383964 13.37581193 -22.73580933 12.15484619 C-21.40150125 11.36728341 -20.06601413 10.58171432 -18.72927856 9.79827881 C-13.795526 6.88897553 -9.0493689 3.75180688 -4.37158203 0.44360352 C-2.13061523 -0.56274414 -2.13061523 -0.56274414 0 0 Z " fill="#A8A0CF" transform="translate(94.130615234375,260.562744140625)"/>
</svg>
